<?xml version="1.0"?>
<svg xmlns="http://www.w3.org/2000/svg" xmlns:xlink="http://www.w3.org/1999/xlink" version="1.1" id="Capa_1" x="0px" y="0px" viewBox="0 0 480 480" style="enable-background:new 0 0 480 480;" xml:space="preserve" width="512px" height="512px" class="">
    <g>
        <g>
            <path d="M240,0c-66.3,0-120,53.7-120,120c0,47.8,28.1,88.4,68.3,107.2c0,0,14.5,9.3,8.3,18.1c-6.2,8.8-17.7,14.7-29.3,14.7    c-21.2,0-39.5-17.3-39.5-39.5c0-8.8,3.1-16.9,8.3-23.4c-0.4-0.8-0.7-1.6-1.1-2.4c-2.5-5.3-5.7-11.1-10.5-14.8    c-15.2-12.1-24.5-30.5-24.5-50.1C120,53.8,182.3,0,240,0z M206.4,224c7.4,0,14.4,3.1,19.2,8.6c4.8,5.5,6.4,12.5,6.4,19.8    c0,10.3-5.4,19.7-14.4,24.7c-9.1,5-20.4,2.5-26.4-6.2c-2.1-3.5-3.2-7.5-3.2-11.6c0-7.6,2.6-14.5,6.8-20.2C191.7,227.7,198.6,224,206.4,224z" fill="#444444"/>
        </g>
    </g>
    <g>
        <g>
            <path d="M240,280c-49.7,0-90,40.3-90,90c0,49.7,40.3,90,90,90c49.7,0,90-40.3,90-90C330,320.3,289.7,280,240,280z M240,420    c-39.8,0-72-32.2-72-72c0-39.8,32.2-72,72-72c39.8,0,72,32.2,72,72C312,387.8,279.8,420,240,420z" fill="#444444"/>
        </g>
    </g>
    <g>
        <g>
            <path d="M240,336c-15.7,0-28.5-12.8-28.5-28.5S224.3,279,240,279s28.5,12.8,28.5,28.5S255.7,336,240,336z" fill="#444444"/>
        </g>
    </g>
    <g>
        <g>
            <path d="M160,440h160v16H160V440z" fill="#444444"/>
        </g>
    </g>
    <g>
        <g>
            <path d="M320,200c0-8.8-7.2-16-16-16s-16,7.2-16,16s7.2,16,16,16S320,208.8,320,200z" fill="#444444"/>
        </g>
    </g>
    <g>
        <g>
            <path d="M120,40c-8.8,0-16,7.2-16,16s7.2,16,16,16s16-7.2,16-16S128.8,40,120,40z" fill="#444444"/>
        </g>
    </g>
</svg>
